<svg width="54" height="54" viewBox="0 0 54 54" fill="none" xmlns="http://www.w3.org/2000/svg">
<path d="M26.9995 0C12.1128 0 0 12.1123 0 27C0 41.8871 12.1127 54 26.9995 54C41.8881 54 54 41.8871 54 27C54 12.1123 41.8881 0 26.9995 0ZM43.4793 35.9364C43.0937 36.3212 42.5884 36.5155 42.0834 36.5155C41.5775 36.5155 41.0723 36.3212 40.6866 35.9364L26.9995 22.2513L13.3139 35.9364C12.5424 36.7077 11.2903 36.7077 10.5188 35.9364C9.74673 35.1651 9.74673 33.9144 10.5188 33.1429L25.6027 18.0618C26.3752 17.2905 27.6234 17.2905 28.3945 18.0618L43.4783 33.1429C44.2509 33.9144 44.2509 35.1651 43.4793 35.9364Z" fill="#E49E9E"/>
</svg>
