<svg width="41" height="41" viewBox="0 0 41 41" fill="none" xmlns="http://www.w3.org/2000/svg">
<path d="M20.4996 0C9.19676 0 0 9.19638 0 20.5C0 31.8032 9.19668 41 20.4996 41C31.8039 41 41 31.8032 41 20.5C41 9.19638 31.8039 0 20.4996 0ZM33.0121 27.285C32.7193 27.5772 32.3356 27.7247 31.9522 27.7247C31.5681 27.7247 31.1845 27.5772 30.8917 27.285L20.4996 16.8945L10.1087 27.285C9.52293 27.8707 8.57226 27.8707 7.9865 27.285C7.4003 26.6994 7.4003 25.7498 7.9865 25.1641L19.4391 13.7136C20.0256 13.128 20.9733 13.128 21.5588 13.7136L33.0113 25.1641C33.5979 25.7498 33.5979 26.6994 33.0121 27.285Z" fill="#E49E9E"/>
</svg>
