<?xml version="1.0" encoding="iso-8859-1"?>
<!-- Generator: Adobe Illustrator 18.1.1, SVG Export Plug-In . SVG Version: 6.00 Build 0)  -->
<svg version="1.1" id="Capa_1" xmlns="http://www.w3.org/2000/svg" xmlns:xlink="http://www.w3.org/1999/xlink" x="0px" y="0px"
	 viewBox="0 0 49.827 49.827" style="enable-background:new 0 0 49.827 49.827;" xml:space="preserve">
<g>
	<path style="fill:#010002;" d="M44.939,41.327c0,4.687-3.813,8.5-8.5,8.5H13.387c-4.687,0-8.5-3.813-8.5-8.5
		c0-1.933,1.567-3.5,3.5-3.5s3.5,1.567,3.5,3.5c0,0.827,0.673,1.5,1.5,1.5h23.052c0.827,0,1.5-0.673,1.5-1.5
		c0-1.933,1.567-3.5,3.5-3.5S44.939,39.394,44.939,41.327z M17.056,16.308l4.358-4.358v19.877c0,1.933,1.567,3.5,3.5,3.5
		s3.5-1.567,3.5-3.5V11.95l4.357,4.357c0.684,0.684,1.579,1.025,2.475,1.025s1.791-0.342,2.475-1.025
		c1.367-1.367,1.367-3.583,0-4.95L27.388,1.025C26.731,0.368,25.841,0,24.913,0s-1.818,0.369-2.475,1.025L12.105,11.358
		c-1.367,1.367-1.367,3.583,0,4.95C13.472,17.674,15.688,17.674,17.056,16.308z"/>
</g>
<g>
</g>
<g>
</g>
<g>
</g>
<g>
</g>
<g>
</g>
<g>
</g>
<g>
</g>
<g>
</g>
<g>
</g>
<g>
</g>
<g>
</g>
<g>
</g>
<g>
</g>
<g>
</g>
<g>
</g>
</svg>
