<svg width="42" height="42" viewBox="0 0 42 42" fill="none" xmlns="http://www.w3.org/2000/svg">
<path d="M20.9996 0C9.42107 0 0 9.42068 0 21C0 32.5789 9.42099 42 20.9996 42C32.5796 42 42 32.5789 42 21C42 9.42068 32.5796 0 20.9996 0ZM33.8172 27.9505C33.5173 28.2498 33.1243 28.4009 32.7315 28.4009C32.3381 28.4009 31.9451 28.2498 31.6451 27.9505L20.9996 17.3066L10.3553 27.9505C9.7552 28.5504 8.78134 28.5504 8.18129 27.9505C7.58079 27.3506 7.58079 26.3779 8.18129 25.7778L19.9132 14.0481C20.514 13.4482 21.4849 13.4482 22.0846 14.0481L33.8165 25.7778C34.4174 26.3779 34.4174 27.3506 33.8172 27.9505Z" fill="#E49E9E"/>
</svg>
